<svg width="400" height="250" viewBox="0 0 400 250" fill="none" xmlns="http://www.w3.org/2000/svg">
<path fill-rule="evenodd" clip-rule="evenodd" d="M393 65.6C393 87.4706 375.321 105.2 353.513 105.2C335.114 105.2 319.654 92.58 315.27 75.5H260.139C250.488 75.5 242.251 82.4978 240.664 92.0449L239.041 101.81C237.5 111.082 232.824 119.152 226.21 125C232.824 130.848 237.5 138.918 239.041 148.19L240.664 157.955C242.251 167.502 250.488 174.5 260.139 174.5H275.783C280.166 157.42 295.627 144.8 314.026 144.8C335.834 144.8 353.513 162.529 353.513 184.4C353.513 206.271 335.834 224 314.026 224C295.627 224 280.166 211.38 275.783 194.3H260.139C240.837 194.3 224.363 180.305 221.19 161.21L219.566 151.445C217.98 141.898 209.743 134.9 200.092 134.9H183.986C179.057 151.136 164.007 162.95 146.205 162.95C128.403 162.95 113.353 151.136 108.424 134.9H85.2684C80.3394 151.136 65.2888 162.95 47.4872 162.95C25.679 162.95 8 145.22 8 123.35C8 101.48 25.679 83.7502 47.4872 83.7502C66.4744 83.7502 82.3315 97.1894 86.1164 115.1H107.576C111.361 97.1894 127.218 83.7502 146.205 83.7502C165.192 83.7502 181.05 97.1894 184.834 115.1H200.092C209.743 115.1 217.98 108.102 219.566 98.5551L221.19 88.7898C224.363 69.6951 240.837 55.7 260.139 55.7H315.27C319.654 38.6203 335.114 26 353.513 26C375.321 26 393 43.7295 393 65.6ZM373.256 65.6C373.256 76.535 364.417 85.4 353.513 85.4C342.609 85.4 333.769 76.535 333.769 65.6C333.769 54.6648 342.609 45.8 353.513 45.8C364.417 45.8 373.256 54.6648 373.256 65.6ZM47.4872 143.15C58.3914 143.15 67.2306 134.285 67.2306 123.35C67.2306 112.415 58.3914 103.55 47.4872 103.55C36.5831 103.55 27.7436 112.415 27.7436 123.35C27.7436 134.285 36.5831 143.15 47.4872 143.15ZM146.205 143.15C157.109 143.15 165.949 134.285 165.949 123.35C165.949 112.415 157.109 103.55 146.205 103.55C135.301 103.55 126.461 112.415 126.461 123.35C126.461 134.285 135.301 143.15 146.205 143.15ZM314.026 204.2C324.93 204.2 333.769 195.335 333.769 184.4C333.769 173.465 324.93 164.6 314.026 164.6C303.122 164.6 294.282 173.465 294.282 184.4C294.282 195.335 303.122 204.2 314.026 204.2Z" fill="#EA4B71"/>
</svg>
