<svg width="31" height="26" viewBox="0 0 31 26" fill="none" xmlns="http://www.w3.org/2000/svg">
  <path d="M6.43568 5.43868L3.96875 7.22461L7.17408 11.6522L9.641 9.86623L6.43568 5.43868Z" fill="#0D6EFD"/>
  <path d="M3.65265 7.3092C5.66995 7.3092 7.30529 5.67386 7.30529 3.65655C7.30529 1.63925 5.66995 0.00390625 3.65265 0.00390625C1.63535 0.00390625 0 1.63925 0 3.65655C0 5.67386 1.63535 7.3092 3.65265 7.3092Z" fill="#0D6EFD"/>
  <path d="M9.39679 16.6881C11.4141 16.6881 13.0494 15.0528 13.0494 13.0355C13.0494 11.0182 11.4141 9.38281 9.39679 9.38281C7.37949 9.38281 5.74414 11.0182 5.74414 13.0355C5.74414 15.0528 7.37949 16.6881 9.39679 16.6881Z" fill="#0D6EFD"/>
  <path d="M15.4046 7.3092C17.4219 7.3092 19.0572 5.67386 19.0572 3.65655C19.0572 1.63925 17.4219 0.00390625 15.4046 0.00390625C13.3873 0.00390625 11.752 1.63925 11.752 3.65655C11.752 5.67386 13.3873 7.3092 15.4046 7.3092Z" fill="#0D6EFD"/>
  <path d="M27.0237 7.3092C29.041 7.3092 30.6764 5.67386 30.6764 3.65655C30.6764 1.63925 29.041 0.00390625 27.0237 0.00390625C25.0064 0.00390625 23.3711 1.63925 23.3711 3.65655C23.3711 5.67386 25.0064 7.3092 27.0237 7.3092Z" fill="#0D6EFD"/>
  <path d="M21.223 16.6881C23.2403 16.6881 24.8756 15.0528 24.8756 13.0355C24.8756 11.0182 23.2403 9.38281 21.223 9.38281C19.2057 9.38281 17.5703 11.0182 17.5703 13.0355C17.5703 15.0528 19.2057 16.6881 21.223 16.6881Z" fill="#0D6EFD"/>
  <path d="M15.2151 25.2213C17.2324 25.2213 18.8678 23.586 18.8678 21.5687C18.8678 19.5514 17.2324 17.916 15.2151 17.916C13.1978 17.916 11.5625 19.5514 11.5625 21.5687C11.5625 23.586 13.1978 25.2213 15.2151 25.2213Z" fill="#0D6EFD"/>
  <path d="M12.5061 5.43964L9.30078 9.86719L11.7677 11.6531L14.973 7.22557L12.5061 5.43964Z" fill="#0D6EFD"/>
  <path d="M18.6116 14.2853L15.4062 18.7129L17.8732 20.4988L21.0785 16.0713L18.6116 14.2853Z" fill="#0D6EFD"/>
</svg>
